<?xml version="1.0" encoding="UTF-8" standalone="no"?>
<!-- Uploaded to: SVG Repo, www.svgrepo.com, Generator: SVG Repo Mixer Tools -->

<svg
   width="733.33331"
   height="733.33331"
   viewBox="0 0 21.999999 21.999999"
   fill="none"
   version="1.1"
   id="svg1"
   sodipodi:docname="facebook-white.svg"
   inkscape:version="1.4.2 (f4327f4, 2025-05-13)"
   xmlns:inkscape="http://www.inkscape.org/namespaces/inkscape"
   xmlns:sodipodi="http://sodipodi.sourceforge.net/DTD/sodipodi-0.dtd"
   xmlns="http://www.w3.org/2000/svg"
   xmlns:svg="http://www.w3.org/2000/svg">
  <defs
     id="defs1" />
  <sodipodi:namedview
     id="namedview1"
     pagecolor="#ffffff"
     bordercolor="#666666"
     borderopacity="1.0"
     inkscape:showpageshadow="2"
     inkscape:pageopacity="0.0"
     inkscape:pagecheckerboard="0"
     inkscape:deskcolor="#d1d1d1"
     inkscape:zoom="1.01875"
     inkscape:cx="367.11656"
     inkscape:cy="366.62577"
     inkscape:window-width="1920"
     inkscape:window-height="1017"
     inkscape:window-x="-8"
     inkscape:window-y="-8"
     inkscape:window-maximized="1"
     inkscape:current-layer="svg1" />
  <path
     fill-rule="evenodd"
     clip-rule="evenodd"
     d="m 19,0 c 1.6569,0 3,1.34315 3,3 v 16 c 0,1.6569 -1.3431,3 -3,3 H 3 C 1.34315,22 0,20.6569 0,19 V 3 C 0,1.34315 1.34315,0 3,0 Z m 0,2 c 0.5523,0 1,0.44772 1,1 v 16 c 0,0.5523 -0.4477,1 -1,1 h -5 v -7.0001 h 2.0762 c 0.4304,0 0.8125,-0.2754 0.9487,-0.6838 l 0.443,-1.329 C 17.6298,10.5014 17.2683,9.9999 16.7564,9.9999 H 14 V 7.99992 c 0,-0.5 0.5,-1 1,-1 h 2 c 0.5523,0 1,-0.44772 1,-1 V 5.31393 C 18,4.99091 17.7937,4.7013 17.4813,4.61887 16.1705,4.27295 15,4.27295 15,4.27295 c -2.5,0 -4,1.72697 -4,3.22697 V 9.9999 H 9 c -0.55228,0 -1,0.4477 -1,1 v 1 c 0,0.5523 0.44771,1 1,1 h 2 V 20 H 3 C 2.44772,20 2,19.5523 2,19 V 3 C 2,2.44772 2.44772,2 3,2 Z"
     fill="currentColor"
     id="path1"
     style="fill:#ffffff;fill-opacity:1" />
</svg>
